<mxfile host="app.diagrams.net" modified="2023-11-02T15:43:03.943Z" agent="Mozilla/5.0 (X11; Linux x86_64; rv:109.0) Gecko/20100101 Firefox/119.0" etag="HUznMzjvO9T4EDlK6WLq" version="22.0.8" type="device">
  <diagram name="Pagina-1" id="EDNP8roOZi74-TB1KxS2">
    <mxGraphModel dx="954" dy="500" grid="1" gridSize="10" guides="1" tooltips="1" connect="1" arrows="1" fold="1" page="1" pageScale="1" pageWidth="827" pageHeight="1169" math="0" shadow="0">
      <root>
        <mxCell id="0" />
        <mxCell id="1" parent="0" />
        <mxCell id="1I68txVeIRTT3TtLmZKw-1" value="" style="ellipse;whiteSpace=wrap;html=1;aspect=fixed;fillColor=#000000;" parent="1" vertex="1">
          <mxGeometry x="220" y="40" width="40" height="40" as="geometry" />
        </mxCell>
        <mxCell id="1I68txVeIRTT3TtLmZKw-2" value="" style="endArrow=classic;html=1;rounded=0;exitX=0.5;exitY=1;exitDx=0;exitDy=0;entryX=0.5;entryY=0;entryDx=0;entryDy=0;" parent="1" source="1I68txVeIRTT3TtLmZKw-1" target="1I68txVeIRTT3TtLmZKw-3" edge="1">
          <mxGeometry width="50" height="50" relative="1" as="geometry">
            <mxPoint x="130" y="280" as="sourcePoint" />
            <mxPoint x="240" y="130" as="targetPoint" />
          </mxGeometry>
        </mxCell>
        <mxCell id="1I68txVeIRTT3TtLmZKw-3" value="Visualizza le macchine della rete" style="rounded=1;whiteSpace=wrap;html=1;" parent="1" vertex="1">
          <mxGeometry x="180" y="120" width="120" height="60" as="geometry" />
        </mxCell>
        <mxCell id="1I68txVeIRTT3TtLmZKw-4" value="" style="endArrow=classic;html=1;rounded=0;exitX=0.5;exitY=1;exitDx=0;exitDy=0;" parent="1" source="1I68txVeIRTT3TtLmZKw-3" target="1I68txVeIRTT3TtLmZKw-21" edge="1">
          <mxGeometry width="50" height="50" relative="1" as="geometry">
            <mxPoint x="180" y="300" as="sourcePoint" />
            <mxPoint x="300" y="250" as="targetPoint" />
          </mxGeometry>
        </mxCell>
        <mxCell id="1I68txVeIRTT3TtLmZKw-8" value="" style="line;strokeWidth=4;html=1;perimeter=backbonePerimeter;points=[];outlineConnect=0;" parent="1" vertex="1">
          <mxGeometry x="100" y="340" width="280" height="10" as="geometry" />
        </mxCell>
        <mxCell id="1I68txVeIRTT3TtLmZKw-11" value="Specifica i programmi da installare sulle macchine" style="rounded=1;whiteSpace=wrap;html=1;" parent="1" vertex="1">
          <mxGeometry x="100" y="370" width="120" height="60" as="geometry" />
        </mxCell>
        <mxCell id="1I68txVeIRTT3TtLmZKw-12" value="Seleziona le macchine su cui installare i programmi" style="rounded=1;whiteSpace=wrap;html=1;" parent="1" vertex="1">
          <mxGeometry x="260" y="370" width="120" height="60" as="geometry" />
        </mxCell>
        <mxCell id="1I68txVeIRTT3TtLmZKw-13" value="" style="endArrow=classic;html=1;rounded=0;entryX=0.5;entryY=0;entryDx=0;entryDy=0;" parent="1" source="1I68txVeIRTT3TtLmZKw-8" target="1I68txVeIRTT3TtLmZKw-11" edge="1">
          <mxGeometry width="50" height="50" relative="1" as="geometry">
            <mxPoint x="254" y="390" as="sourcePoint" />
            <mxPoint x="304" y="340" as="targetPoint" />
          </mxGeometry>
        </mxCell>
        <mxCell id="1I68txVeIRTT3TtLmZKw-15" value="" style="endArrow=classic;html=1;rounded=0;entryX=0.5;entryY=0;entryDx=0;entryDy=0;" parent="1" source="1I68txVeIRTT3TtLmZKw-8" target="1I68txVeIRTT3TtLmZKw-12" edge="1">
          <mxGeometry width="50" height="50" relative="1" as="geometry">
            <mxPoint x="184" y="356" as="sourcePoint" />
            <mxPoint x="184" y="390" as="targetPoint" />
          </mxGeometry>
        </mxCell>
        <mxCell id="1I68txVeIRTT3TtLmZKw-16" value="" style="line;strokeWidth=4;html=1;perimeter=backbonePerimeter;points=[];outlineConnect=0;" parent="1" vertex="1">
          <mxGeometry x="100" y="450" width="280" height="10" as="geometry" />
        </mxCell>
        <mxCell id="1I68txVeIRTT3TtLmZKw-17" value="" style="endArrow=classic;html=1;rounded=0;exitX=0.5;exitY=1;exitDx=0;exitDy=0;" parent="1" source="1I68txVeIRTT3TtLmZKw-11" target="1I68txVeIRTT3TtLmZKw-16" edge="1">
          <mxGeometry width="50" height="50" relative="1" as="geometry">
            <mxPoint x="254" y="500" as="sourcePoint" />
            <mxPoint x="304" y="450" as="targetPoint" />
          </mxGeometry>
        </mxCell>
        <mxCell id="1I68txVeIRTT3TtLmZKw-18" value="" style="endArrow=classic;html=1;rounded=0;exitX=0.5;exitY=1;exitDx=0;exitDy=0;" parent="1" source="1I68txVeIRTT3TtLmZKw-12" target="1I68txVeIRTT3TtLmZKw-16" edge="1">
          <mxGeometry width="50" height="50" relative="1" as="geometry">
            <mxPoint x="184" y="450" as="sourcePoint" />
            <mxPoint x="184" y="493" as="targetPoint" />
          </mxGeometry>
        </mxCell>
        <mxCell id="1I68txVeIRTT3TtLmZKw-19" value="Invia il comando di installazione tramite protocollo SSH" style="rounded=1;whiteSpace=wrap;html=1;" parent="1" vertex="1">
          <mxGeometry x="180" y="520" width="120" height="60" as="geometry" />
        </mxCell>
        <mxCell id="1I68txVeIRTT3TtLmZKw-20" value="" style="endArrow=classic;html=1;rounded=0;" parent="1" source="1I68txVeIRTT3TtLmZKw-16" target="1I68txVeIRTT3TtLmZKw-19" edge="1">
          <mxGeometry width="50" height="50" relative="1" as="geometry">
            <mxPoint x="254" y="540" as="sourcePoint" />
            <mxPoint x="344" y="670" as="targetPoint" />
          </mxGeometry>
        </mxCell>
        <mxCell id="1I68txVeIRTT3TtLmZKw-21" value="" style="rhombus;whiteSpace=wrap;html=1;" parent="1" vertex="1">
          <mxGeometry x="220" y="240" width="40" height="40" as="geometry" />
        </mxCell>
        <mxCell id="1I68txVeIRTT3TtLmZKw-22" value="" style="endArrow=classic;html=1;rounded=0;exitX=0.5;exitY=1;exitDx=0;exitDy=0;" parent="1" source="1I68txVeIRTT3TtLmZKw-21" target="1I68txVeIRTT3TtLmZKw-8" edge="1">
          <mxGeometry width="50" height="50" relative="1" as="geometry">
            <mxPoint x="70" y="320" as="sourcePoint" />
            <mxPoint x="120" y="270" as="targetPoint" />
          </mxGeometry>
        </mxCell>
        <mxCell id="1I68txVeIRTT3TtLmZKw-23" value="" style="endArrow=classic;html=1;rounded=0;exitX=0.5;exitY=1;exitDx=0;exitDy=0;entryX=0.5;entryY=0;entryDx=0;entryDy=0;" parent="1" source="1I68txVeIRTT3TtLmZKw-19" target="1I68txVeIRTT3TtLmZKw-24" edge="1">
          <mxGeometry width="50" height="50" relative="1" as="geometry">
            <mxPoint x="260" y="790" as="sourcePoint" />
            <mxPoint x="254" y="700" as="targetPoint" />
          </mxGeometry>
        </mxCell>
        <mxCell id="1I68txVeIRTT3TtLmZKw-24" value="" style="rhombus;whiteSpace=wrap;html=1;" parent="1" vertex="1">
          <mxGeometry x="220" y="640" width="40" height="40" as="geometry" />
        </mxCell>
        <mxCell id="1I68txVeIRTT3TtLmZKw-25" value="" style="endArrow=classic;html=1;rounded=0;exitX=1;exitY=0.5;exitDx=0;exitDy=0;entryX=0.5;entryY=0;entryDx=0;entryDy=0;" parent="1" source="1I68txVeIRTT3TtLmZKw-24" target="1I68txVeIRTT3TtLmZKw-28" edge="1">
          <mxGeometry width="50" height="50" relative="1" as="geometry">
            <mxPoint x="370" y="740" as="sourcePoint" />
            <mxPoint x="480" y="660" as="targetPoint" />
            <Array as="points">
              <mxPoint x="480" y="660" />
            </Array>
          </mxGeometry>
        </mxCell>
        <mxCell id="1I68txVeIRTT3TtLmZKw-26" value="" style="endArrow=classic;html=1;rounded=0;exitX=0;exitY=0.5;exitDx=0;exitDy=0;entryX=0.5;entryY=0;entryDx=0;entryDy=0;" parent="1" source="1I68txVeIRTT3TtLmZKw-24" target="1I68txVeIRTT3TtLmZKw-33" edge="1">
          <mxGeometry width="50" height="50" relative="1" as="geometry">
            <mxPoint x="120" y="730" as="sourcePoint" />
            <mxPoint x="140" y="660" as="targetPoint" />
            <Array as="points">
              <mxPoint x="120" y="660" />
            </Array>
          </mxGeometry>
        </mxCell>
        <mxCell id="1I68txVeIRTT3TtLmZKw-27" value="[Installazione completata con successo]" style="text;html=1;strokeColor=none;fillColor=none;align=center;verticalAlign=middle;whiteSpace=wrap;rounded=0;" parent="1" vertex="1">
          <mxGeometry x="260" y="640" width="230" height="20" as="geometry" />
        </mxCell>
        <mxCell id="1I68txVeIRTT3TtLmZKw-28" value="Richiesta di riavviare le macchine" style="rounded=1;whiteSpace=wrap;html=1;" parent="1" vertex="1">
          <mxGeometry x="420" y="720" width="120" height="60" as="geometry" />
        </mxCell>
        <mxCell id="1I68txVeIRTT3TtLmZKw-29" value="" style="endArrow=classic;html=1;rounded=0;exitX=0.5;exitY=1;exitDx=0;exitDy=0;entryX=0.5;entryY=0;entryDx=0;entryDy=0;" parent="1" source="1I68txVeIRTT3TtLmZKw-28" target="1I68txVeIRTT3TtLmZKw-30" edge="1">
          <mxGeometry width="50" height="50" relative="1" as="geometry">
            <mxPoint x="310" y="860" as="sourcePoint" />
            <mxPoint x="360" y="810" as="targetPoint" />
          </mxGeometry>
        </mxCell>
        <mxCell id="1I68txVeIRTT3TtLmZKw-30" value="" style="rhombus;whiteSpace=wrap;html=1;" parent="1" vertex="1">
          <mxGeometry x="460" y="840" width="40" height="40" as="geometry" />
        </mxCell>
        <mxCell id="1I68txVeIRTT3TtLmZKw-32" value="" style="endArrow=classic;html=1;rounded=0;exitX=0.5;exitY=1;exitDx=0;exitDy=0;" parent="1" source="1I68txVeIRTT3TtLmZKw-30" edge="1">
          <mxGeometry width="50" height="50" relative="1" as="geometry">
            <mxPoint x="470" y="970" as="sourcePoint" />
            <mxPoint x="480" y="960" as="targetPoint" />
          </mxGeometry>
        </mxCell>
        <mxCell id="1I68txVeIRTT3TtLmZKw-33" value="Visualizza il messaggio di errore" style="rounded=1;whiteSpace=wrap;html=1;" parent="1" vertex="1">
          <mxGeometry x="60" y="720" width="120" height="60" as="geometry" />
        </mxCell>
        <mxCell id="1I68txVeIRTT3TtLmZKw-34" value="[Errore]" style="text;html=1;strokeColor=none;fillColor=none;align=center;verticalAlign=middle;whiteSpace=wrap;rounded=0;" parent="1" vertex="1">
          <mxGeometry x="160" y="640" width="60" height="20" as="geometry" />
        </mxCell>
        <mxCell id="1I68txVeIRTT3TtLmZKw-35" value="" style="endArrow=classic;html=1;rounded=0;exitX=0.5;exitY=1;exitDx=0;exitDy=0;entryX=0;entryY=0.5;entryDx=0;entryDy=0;" parent="1" source="1I68txVeIRTT3TtLmZKw-33" target="1I68txVeIRTT3TtLmZKw-21" edge="1">
          <mxGeometry width="50" height="50" relative="1" as="geometry">
            <mxPoint x="140" y="940" as="sourcePoint" />
            <mxPoint x="20" y="270" as="targetPoint" />
            <Array as="points">
              <mxPoint x="120" y="800" />
              <mxPoint x="40" y="800" />
              <mxPoint x="40" y="260" />
            </Array>
          </mxGeometry>
        </mxCell>
        <mxCell id="1I68txVeIRTT3TtLmZKw-36" value="" style="endArrow=classic;html=1;rounded=0;exitX=0;exitY=0.5;exitDx=0;exitDy=0;entryX=0.5;entryY=0;entryDx=0;entryDy=0;" parent="1" source="1I68txVeIRTT3TtLmZKw-30" target="1I68txVeIRTT3TtLmZKw-41" edge="1">
          <mxGeometry width="50" height="50" relative="1" as="geometry">
            <mxPoint x="340" y="850" as="sourcePoint" />
            <mxPoint x="242" y="1037" as="targetPoint" />
            <Array as="points">
              <mxPoint x="240" y="860" />
            </Array>
          </mxGeometry>
        </mxCell>
        <mxCell id="1I68txVeIRTT3TtLmZKw-37" value="Riavvia le macchine*" style="rounded=1;whiteSpace=wrap;html=1;" parent="1" vertex="1">
          <mxGeometry x="420" y="940" width="120" height="60" as="geometry" />
        </mxCell>
        <mxCell id="1I68txVeIRTT3TtLmZKw-38" value="[Sì]" style="text;html=1;strokeColor=none;fillColor=none;align=center;verticalAlign=middle;whiteSpace=wrap;rounded=0;" parent="1" vertex="1">
          <mxGeometry x="480" y="880" width="20" height="20" as="geometry" />
        </mxCell>
        <mxCell id="1I68txVeIRTT3TtLmZKw-39" value="[No]" style="text;html=1;strokeColor=none;fillColor=none;align=center;verticalAlign=middle;whiteSpace=wrap;rounded=0;" parent="1" vertex="1">
          <mxGeometry x="440" y="840" width="20" height="20" as="geometry" />
        </mxCell>
        <mxCell id="1I68txVeIRTT3TtLmZKw-41" value="" style="rhombus;whiteSpace=wrap;html=1;" parent="1" vertex="1">
          <mxGeometry x="220" y="1040" width="40" height="40" as="geometry" />
        </mxCell>
        <mxCell id="1I68txVeIRTT3TtLmZKw-42" value="" style="endArrow=classic;html=1;rounded=0;exitX=0.5;exitY=1;exitDx=0;exitDy=0;entryX=1;entryY=0.5;entryDx=0;entryDy=0;" parent="1" source="1I68txVeIRTT3TtLmZKw-37" target="1I68txVeIRTT3TtLmZKw-41" edge="1">
          <mxGeometry width="50" height="50" relative="1" as="geometry">
            <mxPoint x="400" y="1100" as="sourcePoint" />
            <mxPoint x="450" y="1050" as="targetPoint" />
            <Array as="points">
              <mxPoint x="480" y="1060" />
            </Array>
          </mxGeometry>
        </mxCell>
        <mxCell id="1I68txVeIRTT3TtLmZKw-43" value="" style="endArrow=classic;html=1;rounded=0;exitX=0.5;exitY=1;exitDx=0;exitDy=0;" parent="1" source="1I68txVeIRTT3TtLmZKw-41" edge="1">
          <mxGeometry width="50" height="50" relative="1" as="geometry">
            <mxPoint x="310" y="1280" as="sourcePoint" />
            <mxPoint x="240" y="1120" as="targetPoint" />
          </mxGeometry>
        </mxCell>
        <mxCell id="1I68txVeIRTT3TtLmZKw-44" value="" style="ellipse;shape=doubleEllipse;whiteSpace=wrap;html=1;aspect=fixed;fillStyle=auto;shadow=0;fillColor=default;gradientColor=#FFFFFF;" parent="1" vertex="1">
          <mxGeometry x="220" y="1120" width="40" height="40" as="geometry" />
        </mxCell>
        <mxCell id="1I68txVeIRTT3TtLmZKw-45" value="" style="ellipse;whiteSpace=wrap;html=1;aspect=fixed;fillColor=#000000;" parent="1" vertex="1">
          <mxGeometry x="225" y="1125" width="30" height="30" as="geometry" />
        </mxCell>
        <mxCell id="1I68txVeIRTT3TtLmZKw-49" value="" style="ellipse;whiteSpace=wrap;html=1;aspect=fixed;fillColor=#000000;" parent="1" vertex="1">
          <mxGeometry x="680" y="120" width="40" height="40" as="geometry" />
        </mxCell>
        <mxCell id="1I68txVeIRTT3TtLmZKw-50" value="" style="endArrow=classic;html=1;rounded=0;exitX=0.5;exitY=1;exitDx=0;exitDy=0;entryX=0.5;entryY=0;entryDx=0;entryDy=0;" parent="1" source="1I68txVeIRTT3TtLmZKw-49" edge="1">
          <mxGeometry width="50" height="50" relative="1" as="geometry">
            <mxPoint x="590" y="390" as="sourcePoint" />
            <mxPoint x="700" y="240" as="targetPoint" />
          </mxGeometry>
        </mxCell>
        <mxCell id="1I68txVeIRTT3TtLmZKw-54" value="Visualizza le macchine della rete" style="rounded=1;whiteSpace=wrap;html=1;" parent="1" vertex="1">
          <mxGeometry x="640" y="240" width="120" height="60" as="geometry" />
        </mxCell>
        <mxCell id="1I68txVeIRTT3TtLmZKw-55" value="" style="endArrow=classic;html=1;rounded=0;exitX=0.5;exitY=1;exitDx=0;exitDy=0;entryX=0.5;entryY=0;entryDx=0;entryDy=0;" parent="1" source="1I68txVeIRTT3TtLmZKw-54" edge="1">
          <mxGeometry width="50" height="50" relative="1" as="geometry">
            <mxPoint x="460" y="340" as="sourcePoint" />
            <mxPoint x="699.9999999999998" y="360" as="targetPoint" />
          </mxGeometry>
        </mxCell>
        <mxCell id="1I68txVeIRTT3TtLmZKw-57" value="Manda il comando di riavvio alle macchine selezionate tramite protocollo SSH" style="rounded=1;whiteSpace=wrap;html=1;" parent="1" vertex="1">
          <mxGeometry x="640" y="480" width="120" height="60" as="geometry" />
        </mxCell>
        <mxCell id="1I68txVeIRTT3TtLmZKw-58" value="Seleziona le macchine da riavviare" style="rounded=1;whiteSpace=wrap;html=1;" parent="1" vertex="1">
          <mxGeometry x="640" y="360" width="120" height="60" as="geometry" />
        </mxCell>
        <mxCell id="1I68txVeIRTT3TtLmZKw-59" value="" style="endArrow=classic;html=1;rounded=0;exitX=0.5;exitY=1;exitDx=0;exitDy=0;entryX=0.5;entryY=0;entryDx=0;entryDy=0;" parent="1" source="1I68txVeIRTT3TtLmZKw-58" target="1I68txVeIRTT3TtLmZKw-57" edge="1">
          <mxGeometry width="50" height="50" relative="1" as="geometry">
            <mxPoint x="510" y="450" as="sourcePoint" />
            <mxPoint x="560" y="400" as="targetPoint" />
          </mxGeometry>
        </mxCell>
        <mxCell id="1I68txVeIRTT3TtLmZKw-61" value="" style="endArrow=classic;html=1;rounded=0;exitX=0.5;exitY=1;exitDx=0;exitDy=0;entryX=0.5;entryY=0;entryDx=0;entryDy=0;" parent="1" source="1I68txVeIRTT3TtLmZKw-57" target="1I68txVeIRTT3TtLmZKw-66" edge="1">
          <mxGeometry width="50" height="50" relative="1" as="geometry">
            <mxPoint x="730" y="640" as="sourcePoint" />
            <mxPoint x="700" y="600" as="targetPoint" />
          </mxGeometry>
        </mxCell>
        <mxCell id="1I68txVeIRTT3TtLmZKw-66" value="" style="ellipse;shape=doubleEllipse;whiteSpace=wrap;html=1;aspect=fixed;fillStyle=auto;shadow=0;fillColor=default;gradientColor=#FFFFFF;" parent="1" vertex="1">
          <mxGeometry x="680" y="600" width="40" height="40" as="geometry" />
        </mxCell>
        <mxCell id="1I68txVeIRTT3TtLmZKw-67" value="" style="ellipse;whiteSpace=wrap;html=1;aspect=fixed;fillColor=#000000;" parent="1" vertex="1">
          <mxGeometry x="685" y="605" width="30" height="30" as="geometry" />
        </mxCell>
        <mxCell id="1I68txVeIRTT3TtLmZKw-68" value="Activity Diagram:Installa programmi" style="text;html=1;strokeColor=none;fillColor=none;align=center;verticalAlign=middle;whiteSpace=wrap;rounded=0;" parent="1" vertex="1">
          <mxGeometry x="140" y="10" width="200" height="30" as="geometry" />
        </mxCell>
        <mxCell id="1I68txVeIRTT3TtLmZKw-69" value="Riavvia le macchine" style="text;html=1;strokeColor=none;fillColor=none;align=center;verticalAlign=middle;whiteSpace=wrap;rounded=0;" parent="1" vertex="1">
          <mxGeometry x="640" y="90" width="120" height="30" as="geometry" />
        </mxCell>
      </root>
    </mxGraphModel>
  </diagram>
</mxfile>
